# xmcd CD database file
#
# Track frame offsets:
#	150
#	18754
#	35862
#	55138
#	73356
#	90706
#	113249
#	131524
#	150120
#	169148
#	187050
#	207089
#	223594
#	246518
#	265446
#	284711
#	301171
#	317968
#
# Disc length: 4456 seconds
#
# Revision: 1
# Processed by: cddbd v1.5.2PL0 Copyright (c) Steve Scherf et al.
# Submitted via: CDex 1.51
#
DISCID=13116612
DTITLE=Various Artist - EZH-95
DYEAR=1900
DGENRE=Blues
TTITLE0=Little Mix - Wings
TTITLE1=Carly Rae Jepson And Owl City - Good Time
TTITLE2=Rita Ora - How We Do (party)
TTITLE3=Florence And The Machine - Spectrum (calvin harris remix)
TTITLE4=Cheryl Cole - Under The Sun
TTITLE5=Emeli Sande - Read All About It Part 111
TTITLE6=Flo Rida - Whistle
TTITLE7=Elbow - One Day Like This
TTITLE8=karmin - Brokenhearted
TTITLE9=One Direction - Little Things
TTITLE10=Gabrielle Aplin - The Power Of Love
TTITLE11=Robbie Williams - Candy
TTITLE12=Adele - Skyfall
TTITLE13=Rihanna - Diamonds
TTITLE14=Wanted The - I Found You
TTITLE15=Taylor Swift - We Are Never Ever Getting Back Together
TTITLE16=One Direction - live While We're Young
TTITLE17=Script The - Hall Of Fame
EXTD=
EXTT0=
EXTT1=
EXTT2=
EXTT3=
EXTT4=
EXTT5=
EXTT6=
EXTT7=
EXTT8=
EXTT9=
EXTT10=
EXTT11=
EXTT12=
EXTT13=
EXTT14=
EXTT15=
EXTT16=
EXTT17=
PLAYORDER=
